/vscmnt/brussel_pixiu_data/_data_brussel/112/vsc11236/PredSimResults/SUBJ09mtu3D/worker10.mot
version=1
nRows=11
nColumns=50
inDegrees=yes
endheader
                time	         pelvis_tilt	         pelvis_list	     pelvis_rotation	           pelvis_tx	           pelvis_ty	           pelvis_tz	       hip_flexion_r	     hip_adduction_r	      hip_rotation_r	        knee_angle_r	       ankle_angle_r	         mtp_angle_r	       hip_flexion_l	     hip_adduction_l	      hip_rotation_l	        knee_angle_l	       ankle_angle_l	         mtp_angle_l	    lumbar_extension	      lumbar_bending	     lumbar_rotation	 ercspn_r/activation	 intobl_r/activation	 extobl_r/activation	    abd_r/activation	    add_r/activation	hamstrings_r/activation	bifemsh_r/activation	glut_max_r/activation	iliopsoas_r/activation	rect_fem_r/activation	  vasti_r/activation	gastroc_r/activation	 soleus_r/activation	tib_ant_r/activation	 ercspn_l/activation	 intobl_l/activation	 extobl_l/activation	    abd_l/activation	    add_l/activation	hamstrings_l/activation	bifemsh_l/activation	glut_max_l/activation	iliopsoas_l/activation	rect_fem_l/activation	  vasti_l/activation	gastroc_l/activation	 soleus_l/activation	tib_ant_l/activation	
          1.80813429	         -3.55318032	          2.42104074	         -7.82146818	          2.24208652	          0.99289105	          0.00398083	        -12.69737212	         -3.66131075	          0.88205127	        -12.40039728	          7.00253720	         33.26563120	         26.62242312	          0.43638787	         -4.33041034	         -4.35921648	          6.27809219	          0.25188257	        -13.71971159	         -0.94365669	          2.96877231	          0.01000076	          0.01000021	          0.01000081	          0.02079857	          0.02691191	          0.01517482	          0.20164682	          0.01257025	          0.01935314	          0.01000041	          0.01000013	          0.28075020	          0.24572228	          0.01000002	          0.01806507	          0.15636282	          0.04337852	          0.03543093	          0.14304339	          0.02583768	          0.07901669	          0.08142179	          0.07653374	          0.02999479	          0.01432534	          0.01731689	          0.01000019	          0.23005686	
          1.82018852	         -3.52463465	          2.42414838	         -7.68275676	          2.26141066	          0.99074830	          0.00348750	        -13.34584572	         -3.77447751	          0.35798052	        -13.30867253	          6.03319836	         34.84834643	         26.25953450	          0.65150554	         -4.15509003	         -5.69428162	          5.85922918	          0.21122108	        -13.27383479	         -1.26802512	          2.99557252	          0.01542340	          0.01000017	          0.01000086	          0.01731911	          0.02276123	          0.02194398	          0.16791380	          0.01046743	          0.06173059	          0.01000027	          0.01000014	          0.23378272	          0.22359943	          0.01000002	          0.01504300	          0.13020440	          0.03612157	          0.11272132	          0.13002247	          0.04172052	          0.06579810	          0.09302130	          0.06373012	          0.02497687	          0.01192885	          0.01442225	          0.01200913	          0.26725629	
          1.83224275	         -3.48679633	          2.42595273	         -7.50510357	          2.28077366	          0.98892588	          0.00295909	        -13.75373383	         -3.87703676	         -0.18691490	        -14.65635061	          4.94999041	         36.36023448	         25.87388268	          0.86260064	         -3.98205831	         -6.99980583	          5.30626665	          0.20962522	        -12.83166151	         -1.60118775	          3.00400344	          0.03053236	          0.01000011	          0.01000117	          0.01442174	          0.02690243	          0.01953808	          0.13982332	          0.01000015	          0.10300611	          0.01000028	          0.01000016	          0.19467233	          0.19582199	          0.01000002	          0.01252661	          0.10842204	          0.03007866	          0.17095114	          0.13910966	          0.04279999	          0.05479073	          0.12543221	          0.05306847	          0.02079842	          0.01000009	          0.01200955	          0.01000011	          0.30497548	
          1.84429697	         -3.44294719	          2.42473597	         -7.28910790	          2.29984211	          0.98767277	          0.00239573	        -13.81114126	         -3.96909071	         -0.74212008	        -16.58669727	          3.75067986	         37.66080667	         25.58190381	          1.06821164	         -3.83819163	         -8.43350899	          4.69443157	          0.17640291	        -12.43032110	         -1.94235606	          2.98947483	          0.05075072	          0.01000018	          0.01000048	          0.01200908	          0.06553424	          0.01627118	          0.11643230	          0.01000014	          0.15759335	          0.01000023	          0.01000010	          0.16210486	          0.16306225	          0.01000005	          0.01043353	          0.09028372	          0.02504669	          0.20972991	          0.18210834	          0.04144176	          0.04562473	          0.13359563	          0.04419045	          0.01731900	          0.06623603	          0.01000071	          0.01000014	          0.33101554	
          1.85635120	         -3.39470606	          2.41334279	         -7.03447136	          2.31846038	          0.98712925	          0.00182162	        -13.44321116	         -4.04765943	         -1.31245313	        -19.20562874	          2.47339788	         38.48449175	         25.34894093	          1.25798863	         -3.73749721	         -9.98433647	          4.35774702	          0.13743736	        -12.08589062	         -2.28498479	          2.94857991	          0.07570209	          0.01000013	          0.01000046	          0.01000006	          0.10263339	          0.01354942	          0.09695469	          0.01000004	          0.14738603	          0.01000012	          0.01000003	          0.13498572	          0.13578296	          0.01000006	          0.01000501	          0.07517984	          0.02085655	          0.23443971	          0.19357371	          0.04078834	          0.03799214	          0.14327121	          0.03679767	          0.01442168	          0.14022468	          0.01000100	          0.01033142	          0.33488349	
          1.86840543	         -3.34465746	          2.38539258	         -6.73869511	          2.33654362	          0.98741723	          0.00127248	        -12.61344664	         -4.11605106	         -1.91110438	        -22.55804031	          1.18386351	         38.43443536	         25.06254521	          1.42924068	         -3.66217153	        -11.44099662	          4.30535012	          0.10406845	        -11.80459522	         -2.62391417	          2.87633338	          0.08163633	          0.01000011	          0.01595904	          0.01000002	          0.13522157	          0.01128309	          0.08073657	          0.01000002	          0.12272947	          0.01000010	          0.01000002	          0.11240345	          0.11306732	          0.01000003	          0.01000164	          0.06260273	          0.01736738	          0.23517425	          0.19697453	          0.04018127	          0.03163644	          0.14839347	          0.03064166	          0.01200909	          0.18751482	          0.01000270	          0.01226806	          0.32464426	
          1.88045966	         -3.29468115	          2.33316534	         -6.39818046	          2.35407034	          0.98855133	          0.00077756	        -11.33770479	         -4.17684235	         -2.51751587	        -26.55673292	         -0.28346307	         37.51611649	         24.64106170	          1.57949264	         -3.58001482	        -12.63778450	          4.45136469	          0.08297814	        -11.58644038	         -2.95174063	          2.76902501	          0.06826122	          0.01000011	          0.04295500	          0.01000002	          0.15725504	          0.01478443	          0.06997191	          0.01000002	          0.10219768	          0.01000007	          0.01000001	          0.09359905	          0.09415186	          0.01000015	          0.01000138	          0.05212970	          0.01446194	          0.21884750	          0.19328536	          0.04269949	          0.02634401	          0.13006691	          0.02551551	          0.01000023	          0.21842475	          0.01000245	          0.01051456	          0.30295917	
          1.89251389	         -3.24578586	          2.25001684	         -6.01406757	          2.37105268	          0.99040398	          0.00034431	         -9.67436200	         -4.23107273	         -3.09708663	        -31.04069400	         -1.97969667	         35.63033421	         24.05680968	          1.70593850	         -3.44993585	        -13.51159893	          4.71579009	          0.07438447	        -11.42937675	         -3.25844123	          2.63013061	          0.07054716	          0.04936853	          0.08041439	          0.01000001	          0.13306481	          0.01231136	          0.05826667	          0.01000003	          0.08510071	          0.01000007	          0.01000001	          0.07794051	          0.07840084	          0.03698638	          0.01000149	          0.04340874	          0.01204257	          0.19934672	          0.16095033	          0.04343449	          0.02193697	          0.10830787	          0.02124693	          0.01000024	          0.22671667	          0.01000120	          0.01000036	          0.27822226	
          1.90456812	         -3.19799241	          2.13516408	         -5.59711569	          2.38748388	          0.99275062	         -0.00004925	         -7.71239167	         -4.27734127	         -3.60913805	        -35.85375001	         -3.56569683	         32.36238188	         23.34361505	          1.80587500	         -3.25102113	        -14.11168541	          5.04316119	          0.07755920	        -11.33496803	         -3.53222618	          2.46666681	          0.08600419	          0.09295698	          0.12532058	          0.01000010	          0.11080391	          0.01025182	          0.04851939	          0.01000009	          0.07086397	          0.01000054	          0.01000002	          0.06490156	          0.06528486	          0.14221631	          0.01000046	          0.03614674	          0.01002796	          0.17615471	          0.13402452	          0.03948597	          0.01826719	          0.09309867	          0.01769246	          0.01000026	          0.23253473	          0.01000056	          0.01000017	          0.25239356	
          1.91662235	         -3.15116630	          2.00103835	         -5.15080625	          2.40335807	          0.99534564	         -0.00040931	         -5.57664449	         -4.26812913	         -3.95822374	        -40.80041031	         -4.41224680	         27.91731125	         22.54822441	          1.88762141	         -2.98560381	        -14.50967300	          5.39334964	          0.09554946	        -11.30357749	         -3.77696478	          2.27550578	          0.09026716	          0.09941156	          0.14681441	          0.01000054	          0.09226713	          0.01000013	          0.05119860	          0.01000006	          0.05900909	          0.01000060	          0.01000001	          0.05404398	          0.05436311	          0.15298340	          0.01000041	          0.03009963	          0.01000010	          0.15480691	          0.11160324	          0.03490195	          0.01521135	          0.08282329	          0.01473263	          0.01000030	          0.22305716	          0.01000049	          0.01000016	          0.22589858	
          1.92867657	         -3.10541000	          1.86034451	         -4.67703552	          2.41872326	          0.99805543	         -0.00071883	         -3.37718491	         -4.16063902	         -4.14806677	        -45.61747624	         -4.26008499	         23.92603384	         21.71212947	          1.95786049	         -2.66509968	        -14.77796843	          5.74298883	          0.13380859	        -11.32847944	         -4.00393294	          2.05649188	          0.07516735	          0.10361113	          0.15081698	          0.01000001	          0.07686634	          0.01000012	          0.06753126	          0.01000002	          0.07046015	          0.01000044	          0.01000001	          0.04500293	          0.04526850	          0.16288304	          0.01000092	          0.02506418	          0.01000012	          0.14192597	          0.09293284	          0.03538299	          0.01266679	          0.06970265	          0.01226798	          0.01000053	          0.20800228	          0.01000047	          0.01000017	          0.19979619	
